<svg id="Layer_1" fill="white" data-name="Layer 1" xmlns="http://www.w3.org/2000/svg" viewBox="0 0 122.65 160.58"><title>B</title><path d="M141.71,62.73l0-.21A58.63,58.63,0,0,0,135.46,47C127.3,33.14,112,24.07,95.83,20.23,79.3,16.3,59,15.64,43.63,23.5c-6.34,3.24-12.08,8.25-15.29,14.33a30.45,30.45,0,0,0-2.88,8.37l0,.18A169.63,169.63,0,0,0,24.1,70.12c.31,14.45-1,28.6-1.72,43-.46,9.79-1.07,19.74-.57,29.59l0,.2c1.18,8.84,4.47,16.94,12.83,21.13,7.85,3.95,17.11,6.28,25.67,8.48a197.09,197.09,0,0,0,27.51,5.21c9.51,1,18-1.39,24.13-8.45s7.87-16.24,8.94-25.15a72.09,72.09,0,0,0,.48-12.46,43.68,43.68,0,0,0-3.18-14.77c-1.59-3.66-6.24-7.25-7-11-.73-3.54,2.79-7.22,4.14-10.27a42,42,0,0,0,3.32-14.11c.77-11.84-4.47-23.91-12.78-32.36C96.58,39.76,83,35.88,70,36c-9.89.09-21,6.66-21.62,17.4-.06,1,0,2.09,1,2.64a2.36,2.36,0,0,0,2.15,0c1.41-.68,2.07-2.11,2.86-3.37,10-15.93,37.13-6,46.06,5.87a42.63,42.63,0,0,1,7.61,14.8c2.47,9.66-.74,21.14-8.85,27.22-2.17,1.63-5,2.14-5.48,5.25a5,5,0,0,0,3.79,5.58c15.57,4,14,22.89,12.4,34.41-.85,6.31-2.23,13.25-7.06,18.07-6.07,6.06-14.55,4.1-22.35,2.76a218,218,0,0,1-22.1-5c-6.39-1.79-16.52-3.6-21.38-8.12s-4.34-12.8-4.59-18.62c-.36-8.53,0-17.08.28-25.61Q33.49,87,34.69,64.7c.34-6.38-.15-13.57,2-19.71s7.58-10.75,13.71-13.52c13.18-6,30.71-4.75,44.44-1.12S121.14,42,127.41,54.3c7.17,14,6.8,31.2,6.88,46.39,0,2.22,0,4.45,0,6.67s-.08,4.43-.14,6.65-.16,4.44-.26,6.66-.23,4.43-.36,6.65-.29,4.43-.45,6.64-.34,4.43-.53,6.65-.38,4.42-.59,6.63c-.1,1.11-.21,2.21-.32,3.32-.05.55-.1,1.1-.16,1.66,0,.27,0,.55-.08.83a1.53,1.53,0,0,0,0,.64c.22.64,1.17.65,1.73.72a17.89,17.89,0,0,0,1.94.14h.33C141.29,154.15,144,107,144,107S145.46,81.55,141.71,62.73Z" transform="translate(-21.63 -17.39)"/></svg>